<?xml version="1.0" standalone="no"?>
<svg xmlns:xlink="http://www.w3.org/1999/xlink" id="wave" style="transform:rotate(0deg); transition: 0.3s" viewBox="0 0 1440 170" version="1.1" xmlns="http://www.w3.org/2000/svg"><defs><linearGradient id="sw-gradient-0" x1="0" x2="0" y1="1" y2="0"><stop stop-color="rgba(18, 45, 105, 1)" offset="0%"/><stop stop-color="rgba(255, 255, 255, 1)" offset="100%"/></linearGradient></defs><path style="transform:translate(0, 0px); opacity:1" fill="url(#sw-gradient-0)" d="M0,17L10,28.3C20,40,40,62,60,73.7C80,85,100,85,120,76.5C140,68,160,51,180,53.8C200,57,220,79,240,85C260,91,280,79,300,85C320,91,340,113,360,107.7C380,102,400,68,420,51C440,34,460,34,480,45.3C500,57,520,79,540,87.8C560,96,580,91,600,76.5C620,62,640,40,660,34C680,28,700,40,720,39.7C740,40,760,28,780,25.5C800,23,820,28,840,39.7C860,51,880,68,900,82.2C920,96,940,108,960,102C980,96,1000,74,1020,68C1040,62,1060,74,1080,87.8C1100,102,1120,119,1140,116.2C1160,113,1180,91,1200,79.3C1220,68,1240,68,1260,79.3C1280,91,1300,113,1320,113.3C1340,113,1360,91,1380,70.8C1400,51,1420,34,1430,25.5L1440,17L1440,170L1430,170C1420,170,1400,170,1380,170C1360,170,1340,170,1320,170C1300,170,1280,170,1260,170C1240,170,1220,170,1200,170C1180,170,1160,170,1140,170C1120,170,1100,170,1080,170C1060,170,1040,170,1020,170C1000,170,980,170,960,170C940,170,920,170,900,170C880,170,860,170,840,170C820,170,800,170,780,170C760,170,740,170,720,170C700,170,680,170,660,170C640,170,620,170,600,170C580,170,560,170,540,170C520,170,500,170,480,170C460,170,440,170,420,170C400,170,380,170,360,170C340,170,320,170,300,170C280,170,260,170,240,170C220,170,200,170,180,170C160,170,140,170,120,170C100,170,80,170,60,170C40,170,20,170,10,170L0,170Z"/></svg>