<?xml version="1.0" standalone="no"?>
<svg xmlns:xlink="http://www.w3.org/1999/xlink" id="wave" style="transform:rotate(180deg); transition: 0.3s" viewBox="0 0 1440 170" version="1.1" xmlns="http://www.w3.org/2000/svg"><defs><linearGradient id="sw-gradient-0" x1="0" x2="0" y1="1" y2="0"><stop stop-color="rgba(18, 45, 105, 1)" offset="0%"/><stop stop-color="rgba(255, 255, 255, 1)" offset="100%"/></linearGradient></defs><path style="transform:translate(0, 0px); opacity:1" fill="url(#sw-gradient-0)" d="M0,17L10,39.7C20,62,40,108,60,116.2C80,125,100,96,120,73.7C140,51,160,34,180,25.5C200,17,220,17,240,39.7C260,62,280,108,300,110.5C320,113,340,74,360,65.2C380,57,400,79,420,82.2C440,85,460,68,480,70.8C500,74,520,96,540,87.8C560,79,580,40,600,42.5C620,45,640,91,660,113.3C680,136,700,136,720,133.2C740,130,760,125,780,121.8C800,119,820,119,840,99.2C860,79,880,40,900,34C920,28,940,57,960,73.7C980,91,1000,96,1020,90.7C1040,85,1060,68,1080,59.5C1100,51,1120,51,1140,56.7C1160,62,1180,74,1200,68C1220,62,1240,40,1260,34C1280,28,1300,40,1320,48.2C1340,57,1360,62,1380,53.8C1400,45,1420,23,1430,11.3L1440,0L1440,170L1430,170C1420,170,1400,170,1380,170C1360,170,1340,170,1320,170C1300,170,1280,170,1260,170C1240,170,1220,170,1200,170C1180,170,1160,170,1140,170C1120,170,1100,170,1080,170C1060,170,1040,170,1020,170C1000,170,980,170,960,170C940,170,920,170,900,170C880,170,860,170,840,170C820,170,800,170,780,170C760,170,740,170,720,170C700,170,680,170,660,170C640,170,620,170,600,170C580,170,560,170,540,170C520,170,500,170,480,170C460,170,440,170,420,170C400,170,380,170,360,170C340,170,320,170,300,170C280,170,260,170,240,170C220,170,200,170,180,170C160,170,140,170,120,170C100,170,80,170,60,170C40,170,20,170,10,170L0,170Z"/></svg>